<svg width="624" height="156" viewBox="0 0 624 156" fill="none" xmlns="http://www.w3.org/2000/svg">
<path d="M6.6 117.48H15.6V44.76H6.6V39.24H34.92V44.76H25.92V117.12H56.64V101.76H65.28V123H6.6V117.48ZM67.0406 63.24C69.7606 60.84 72.0406 58.36 73.8806 55.8C75.7206 53.16 76.9206 50.68 77.4806 48.36H77.2406C75.0006 48.36 73.2806 47.64 72.0806 46.2C70.8806 44.76 70.2806 43.12 70.2806 41.28V40.56C70.2806 38.48 70.9606 36.76 72.3206 35.4C73.6806 33.96 75.4806 33.24 77.7206 33.24C80.0406 33.24 81.8406 34 83.1206 35.52C84.4806 37.04 85.1606 38.88 85.1606 41.04V42.12C85.1606 43.88 84.8406 45.72 84.2006 47.64C83.5606 49.56 82.6806 51.48 81.5606 53.4C80.5206 55.32 79.2406 57.12 77.7206 58.8C76.2806 60.48 74.7206 61.96 73.0406 63.24H67.0406ZM117.981 118.56C120.941 118.56 123.501 118.08 125.661 117.12C127.901 116.08 129.701 114.68 131.061 112.92C132.501 111.08 133.541 108.96 134.181 106.56C134.901 104.08 135.261 101.4 135.261 98.52V85.56C135.261 82.68 134.901 80.04 134.181 77.64C133.541 75.16 132.501 73.04 131.061 71.28C129.701 69.44 127.901 68.04 125.661 67.08C123.501 66.04 120.941 65.52 117.981 65.52C114.941 65.52 112.341 66.04 110.181 67.08C108.021 68.04 106.221 69.44 104.781 71.28C103.421 73.04 102.381 75.16 101.661 77.64C101.021 80.04 100.701 82.68 100.701 85.56V98.52C100.701 101.4 101.021 104.08 101.661 106.56C102.381 108.96 103.421 111.08 104.781 112.92C106.221 114.68 108.021 116.08 110.181 117.12C112.341 118.08 114.941 118.56 117.981 118.56ZM117.981 124.44C113.741 124.44 109.861 123.68 106.341 122.16C102.821 120.64 99.8206 118.48 97.3406 115.68C94.8606 112.8 92.9406 109.4 91.5806 105.48C90.2206 101.48 89.5406 97 89.5406 92.04C89.5406 87.16 90.2206 82.72 91.5806 78.72C92.9406 74.72 94.8606 71.32 97.3406 68.52C99.8206 65.64 102.821 63.44 106.341 61.92C109.861 60.4 113.741 59.64 117.981 59.64C122.221 59.64 126.101 60.4 129.621 61.92C133.141 63.44 136.141 65.64 138.621 68.52C141.101 71.32 143.021 74.72 144.381 78.72C145.741 82.72 146.421 87.16 146.421 92.04C146.421 97 145.741 101.48 144.381 105.48C143.021 109.4 141.101 112.8 138.621 115.68C136.141 118.48 133.141 120.64 129.621 122.16C126.101 123.68 122.221 124.44 117.981 124.44ZM157.875 117.48H166.755V68.88L157.875 67.32V63.24L176.355 59.64V70.44H176.955C177.515 69.16 178.195 67.88 178.995 66.6C179.875 65.32 180.915 64.16 182.115 63.12C183.395 62.08 184.835 61.24 186.435 60.6C188.115 59.96 190.035 59.64 192.195 59.64C195.715 59.64 198.515 60.48 200.595 62.16C202.755 63.84 203.835 66.28 203.835 69.48C203.835 71.88 203.235 73.76 202.035 75.12C200.835 76.48 199.275 77.16 197.355 77.16C195.195 77.16 193.475 76.6 192.195 75.48C190.915 74.28 190.275 72.76 190.275 70.92C190.275 69.32 190.595 68.04 191.235 67.08C191.955 66.04 192.755 65.44 193.635 65.28V65.04C193.315 64.96 192.915 64.92 192.435 64.92C191.955 64.84 191.355 64.8 190.635 64.8C188.955 64.8 187.275 65.24 185.595 66.12C183.915 66.92 182.395 68 181.035 69.36C179.755 70.64 178.675 72.12 177.795 73.8C176.995 75.48 176.595 77.16 176.595 78.84V117.48H187.875V123H157.875V117.48ZM238.678 124.44C234.198 124.44 230.198 123.68 226.678 122.16C223.238 120.56 220.318 118.36 217.918 115.56C215.518 112.68 213.678 109.28 212.398 105.36C211.118 101.36 210.478 96.92 210.478 92.04C210.478 87.08 211.158 82.6 212.518 78.6C213.958 74.6 215.958 71.2 218.518 68.4C221.078 65.6 224.118 63.44 227.638 61.92C231.238 60.4 235.198 59.64 239.518 59.64C245.998 59.64 251.118 61.04 254.878 63.84C258.718 66.56 260.638 70.04 260.638 74.28C260.638 76.84 259.958 78.84 258.598 80.28C257.318 81.72 255.518 82.44 253.198 82.44C250.718 82.44 248.878 81.72 247.678 80.28C246.478 78.84 245.878 77.12 245.878 75.12C245.878 73.36 246.318 71.84 247.198 70.56C248.078 69.28 249.318 68.28 250.918 67.56V67.2C249.878 66.56 248.518 66.08 246.838 65.76C245.238 65.44 243.158 65.28 240.598 65.28C237.798 65.28 235.198 65.8 232.798 66.84C230.478 67.88 228.478 69.36 226.798 71.28C225.118 73.12 223.798 75.32 222.838 77.88C221.878 80.36 221.398 83.08 221.398 86.04V94.92C221.398 98.2 221.838 101.2 222.718 103.92C223.598 106.56 224.838 108.84 226.438 110.76C228.118 112.68 230.078 114.16 232.318 115.2C234.638 116.24 237.238 116.76 240.118 116.76C244.998 116.76 248.838 115.76 251.638 113.76C254.438 111.68 256.678 109 258.358 105.72L262.198 108.24C261.478 110.32 260.438 112.36 259.078 114.36C257.718 116.28 256.078 118 254.158 119.52C252.238 120.96 249.958 122.12 247.318 123C244.758 123.96 241.878 124.44 238.678 124.44ZM271.153 117.48H280.033V41.04L271.153 39.48V35.28L289.873 31.8V70.32H290.353C290.833 69.12 291.553 67.88 292.513 66.6C293.473 65.32 294.673 64.16 296.113 63.12C297.633 62.08 299.353 61.24 301.273 60.6C303.273 59.96 305.513 59.64 307.993 59.64C315.433 59.64 320.753 61.6 323.953 65.52C327.153 69.36 328.753 75.16 328.753 82.92V117.48H337.633V123H310.033V117.48H318.913V83.76C318.913 77.92 317.753 73.6 315.433 70.8C313.113 67.92 309.433 66.48 304.393 66.48C302.633 66.48 300.873 66.72 299.113 67.2C297.433 67.68 295.873 68.44 294.433 69.48C293.073 70.52 291.953 71.8 291.073 73.32C290.273 74.84 289.873 76.64 289.873 78.72V117.48H298.753V123H271.153V117.48ZM375.316 124.44C370.916 124.44 366.956 123.68 363.436 122.16C359.996 120.56 357.076 118.36 354.676 115.56C352.276 112.76 350.436 109.36 349.156 105.36C347.876 101.36 347.236 96.92 347.236 92.04C347.236 87.24 347.916 82.88 349.276 78.96C350.716 74.96 352.636 71.52 355.036 68.64C357.516 65.76 360.436 63.56 363.796 62.04C367.156 60.44 370.836 59.64 374.836 59.64C378.916 59.64 382.556 60.36 385.756 61.8C388.956 63.24 391.636 65.28 393.796 67.92C396.036 70.48 397.756 73.56 398.956 77.16C400.156 80.76 400.756 84.68 400.756 88.92V91.68H358.156V94.8C358.156 101.6 359.836 106.96 363.196 110.88C366.636 114.8 371.196 116.76 376.876 116.76C381.836 116.76 385.756 115.76 388.636 113.76C391.596 111.68 393.916 109 395.596 105.72L399.556 108.24C398.756 110.32 397.636 112.36 396.196 114.36C394.836 116.28 393.156 118 391.156 119.52C389.156 120.96 386.836 122.12 384.196 123C381.556 123.96 378.596 124.44 375.316 124.44ZM358.156 86.16H390.436V84.96C390.436 82.16 390.116 79.56 389.476 77.16C388.916 74.76 387.996 72.68 386.716 70.92C385.436 69.16 383.796 67.8 381.796 66.84C379.876 65.8 377.556 65.28 374.836 65.28C372.116 65.28 369.716 65.76 367.636 66.72C365.556 67.68 363.796 69.04 362.356 70.8C360.996 72.56 359.956 74.64 359.236 77.04C358.516 79.36 358.156 81.92 358.156 84.72V86.16ZM436.412 124.44C432.652 124.44 429.372 123.68 426.572 122.16C423.772 120.56 421.932 118.8 421.052 116.88H420.572V123H413.372V104.4H420.572V106.92C420.572 110.36 421.652 113.16 423.812 115.32C425.972 117.48 429.532 118.56 434.492 118.56C439.052 118.56 442.572 117.76 445.052 116.16C447.612 114.48 448.892 111.84 448.892 108.24C448.892 102.64 445.492 99.08 438.692 97.56L431.492 96C425.572 94.72 421.092 92.56 418.052 89.52C415.092 86.48 413.612 82.32 413.612 77.04C413.612 71.6 415.492 67.36 419.252 64.32C423.012 61.2 428.052 59.64 434.372 59.64C438.212 59.64 441.332 60.24 443.732 61.44C446.212 62.64 447.852 64.2 448.652 66.12H449.132V61.08H456.332V79.68H449.132V75.12C449.132 68.72 444.652 65.52 435.692 65.52C431.612 65.52 428.412 66.32 426.092 67.92C423.852 69.44 422.732 71.88 422.732 75.24C422.732 78.04 423.652 80.4 425.492 82.32C427.332 84.16 429.852 85.44 433.052 86.16L439.772 87.6C445.932 88.88 450.532 91 453.572 93.96C456.692 96.92 458.252 101.04 458.252 106.32C458.252 108.88 457.732 111.28 456.692 113.52C455.732 115.68 454.292 117.6 452.372 119.28C450.532 120.88 448.252 122.12 445.532 123C442.892 123.96 439.852 124.44 436.412 124.44ZM488.185 123.72C483.945 123.72 481.025 122.88 479.425 121.2C477.825 119.44 477.025 116.48 477.025 112.32V66.96H469.105V61.08H470.185C471.865 61.08 473.185 60.96 474.145 60.72C475.185 60.48 475.985 60.16 476.545 59.76C477.185 59.28 477.625 58.72 477.865 58.08C478.185 57.36 478.465 56.56 478.705 55.68L481.465 45H486.865V61.08H502.825V66.96H486.865V117.12H502.825V121.08C502.105 121.48 501.185 121.84 500.065 122.16C499.025 122.48 497.825 122.76 496.465 123C495.185 123.24 493.825 123.4 492.385 123.48C490.945 123.64 489.545 123.72 488.185 123.72ZM512.25 117.48H521.13V68.88L512.25 67.32V63.24L530.73 59.64V70.44H531.33C531.89 69.16 532.57 67.88 533.37 66.6C534.25 65.32 535.29 64.16 536.49 63.12C537.77 62.08 539.21 61.24 540.81 60.6C542.49 59.96 544.41 59.64 546.57 59.64C550.09 59.64 552.89 60.48 554.97 62.16C557.13 63.84 558.21 66.28 558.21 69.48C558.21 71.88 557.61 73.76 556.41 75.12C555.21 76.48 553.65 77.16 551.73 77.16C549.57 77.16 547.85 76.6 546.57 75.48C545.29 74.28 544.65 72.76 544.65 70.92C544.65 69.32 544.97 68.04 545.61 67.08C546.33 66.04 547.13 65.44 548.01 65.28V65.04C547.69 64.96 547.29 64.92 546.81 64.92C546.33 64.84 545.73 64.8 545.01 64.8C543.33 64.8 541.65 65.24 539.97 66.12C538.29 66.92 536.77 68 535.41 69.36C534.13 70.64 533.05 72.12 532.17 73.8C531.37 75.48 530.97 77.16 530.97 78.84V117.48H542.25V123H512.25V117.48ZM592.933 124.44C588.533 124.44 584.573 123.68 581.053 122.16C577.613 120.56 574.693 118.36 572.293 115.56C569.893 112.76 568.053 109.36 566.773 105.36C565.493 101.36 564.853 96.92 564.853 92.04C564.853 87.24 565.533 82.88 566.893 78.96C568.333 74.96 570.253 71.52 572.653 68.64C575.133 65.76 578.053 63.56 581.413 62.04C584.773 60.44 588.453 59.64 592.453 59.64C596.533 59.64 600.173 60.36 603.373 61.8C606.573 63.24 609.253 65.28 611.413 67.92C613.653 70.48 615.373 73.56 616.573 77.16C617.773 80.76 618.373 84.68 618.373 88.92V91.68H575.773V94.8C575.773 101.6 577.453 106.96 580.813 110.88C584.253 114.8 588.813 116.76 594.493 116.76C599.453 116.76 603.373 115.76 606.253 113.76C609.213 111.68 611.533 109 613.213 105.72L617.173 108.24C616.373 110.32 615.253 112.36 613.813 114.36C612.453 116.28 610.773 118 608.773 119.52C606.773 120.96 604.453 122.12 601.813 123C599.173 123.96 596.213 124.44 592.933 124.44ZM575.773 86.16H608.053V84.96C608.053 82.16 607.733 79.56 607.093 77.16C606.533 74.76 605.613 72.68 604.333 70.92C603.053 69.16 601.413 67.8 599.413 66.84C597.493 65.8 595.173 65.28 592.453 65.28C589.733 65.28 587.333 65.76 585.253 66.72C583.173 67.68 581.413 69.04 579.973 70.8C578.613 72.56 577.573 74.64 576.853 77.04C576.133 79.36 575.773 81.92 575.773 84.72V86.16Z" fill="#DF632E"/>
</svg>
