<svg width="1024" height="1024" viewBox="0 0 1024 1024" fill="none" xmlns="http://www.w3.org/2000/svg">
<rect x="100" y="100" width="824" height="824" rx="185" fill="url(#paint0_linear_2_169)"/>
<g filter="url(#filter0_d_2_169)">
<mask id="path-2-outside-1_2_169" maskUnits="userSpaceOnUse" x="595" y="602" width="228" height="213" fill="black">
<rect fill="white" x="595" y="602" width="228" height="213"/>
<path d="M720.5 612.5C717.25 620 713.75 629.25 710 640.5C700.75 668.5 674.75 749 664 775L627.25 776.25C640.75 744.25 666.75 662.25 675 633.25C678.5 620.75 679.75 612.75 680.75 604.5L720.5 612.5ZM765.25 693.25C783.25 720.25 808.75 769.5 820.25 797.25L786.5 812.25C775.25 782 752 730.25 734.25 706.25L765.25 693.25ZM624.75 765C659.5 763.75 741.25 754.5 776.25 749.75L783.5 781.75C746.5 786.5 660.5 795.5 626.75 799C620.5 799.75 611 801 603.25 802L597.25 765.25C605.75 765.5 616.75 765.25 624.75 765Z"/>
</mask>
<path d="M720.5 612.5C717.25 620 713.75 629.25 710 640.5C700.75 668.5 674.75 749 664 775L627.25 776.25C640.75 744.25 666.75 662.25 675 633.25C678.5 620.75 679.75 612.75 680.75 604.5L720.5 612.5ZM765.25 693.25C783.25 720.25 808.75 769.5 820.25 797.25L786.5 812.25C775.25 782 752 730.25 734.25 706.25L765.25 693.25ZM624.75 765C659.5 763.75 741.25 754.5 776.25 749.75L783.5 781.75C746.5 786.5 660.5 795.5 626.75 799C620.5 799.75 611 801 603.25 802L597.25 765.25C605.75 765.5 616.75 765.25 624.75 765Z" fill="#1A1A1A"/>
<path d="M720.5 612.5L722.335 613.295C722.575 612.741 722.552 612.109 722.272 611.574C721.993 611.039 721.486 610.658 720.895 610.539L720.5 612.5ZM710 640.5L708.103 639.868L708.101 639.873L710 640.5ZM664 775L664.068 776.999C664.852 776.972 665.548 776.489 665.848 775.764L664 775ZM627.25 776.25L625.407 775.473C625.142 776.101 625.216 776.822 625.602 777.384C625.989 777.946 626.636 778.272 627.318 778.249L627.25 776.25ZM675 633.25L676.924 633.797L676.926 633.789L675 633.25ZM680.75 604.5L681.145 602.539C680.598 602.429 680.03 602.552 679.579 602.879C679.127 603.206 678.832 603.706 678.765 604.259L680.75 604.5ZM765.25 693.25L766.914 692.141C766.383 691.343 765.36 691.035 764.477 691.406L765.25 693.25ZM820.25 797.25L821.062 799.078C822.054 798.637 822.513 797.486 822.098 796.484L820.25 797.25ZM786.5 812.25L784.625 812.947C784.818 813.465 785.216 813.879 785.724 814.093C786.233 814.308 786.808 814.302 787.312 814.078L786.5 812.25ZM734.25 706.25L733.477 704.406C732.91 704.643 732.485 705.127 732.322 705.72C732.159 706.312 732.277 706.946 732.642 707.439L734.25 706.25ZM624.75 765L624.812 766.999L624.822 766.999L624.75 765ZM776.25 749.75L778.201 749.308C777.972 748.297 777.008 747.629 775.981 747.768L776.25 749.75ZM783.5 781.75L783.755 783.734C784.314 783.662 784.816 783.358 785.139 782.896C785.462 782.434 785.575 781.858 785.451 781.308L783.5 781.75ZM626.75 799L626.544 797.011C626.533 797.012 626.522 797.013 626.512 797.014L626.75 799ZM603.25 802L601.276 802.322C601.45 803.387 602.436 804.122 603.506 803.984L603.25 802ZM597.25 765.25L597.309 763.251C596.712 763.233 596.139 763.483 595.745 763.932C595.352 764.382 595.18 764.983 595.276 765.572L597.25 765.25ZM718.665 611.705C715.386 619.271 711.866 628.578 708.103 639.868L711.897 641.132C715.634 629.922 719.114 620.729 722.335 613.295L718.665 611.705ZM708.101 639.873C698.827 667.945 672.865 748.325 662.152 774.236L665.848 775.764C676.635 749.675 702.673 669.055 711.899 641.127L708.101 639.873ZM663.932 773.001L627.182 774.251L627.318 778.249L664.068 776.999L663.932 773.001ZM629.093 777.027C642.643 744.909 668.67 662.811 676.924 633.797L673.076 632.703C664.83 661.689 638.857 743.591 625.407 775.473L629.093 777.027ZM676.926 633.789C680.459 621.17 681.726 613.067 682.735 604.741L678.765 604.259C677.774 612.433 676.541 620.329 673.074 632.711L676.926 633.789ZM680.355 606.461L720.105 614.461L720.895 610.539L681.145 602.539L680.355 606.461ZM763.586 694.359C781.504 721.237 806.945 770.369 818.402 798.016L822.098 796.484C810.555 768.631 784.996 719.263 766.914 692.141L763.586 694.359ZM819.438 795.422L785.688 810.422L787.312 814.078L821.062 799.078L819.438 795.422ZM788.375 811.553C777.115 781.276 753.785 729.301 735.858 705.061L732.642 707.439C750.215 731.199 773.386 782.724 784.625 812.947L788.375 811.553ZM735.023 708.094L766.023 695.094L764.477 691.406L733.477 704.406L735.023 708.094ZM624.822 766.999C659.679 765.745 741.514 756.482 776.519 751.732L775.981 747.768C740.986 752.518 659.321 761.755 624.678 763.001L624.822 766.999ZM774.299 750.192L781.549 782.192L785.451 781.308L778.201 749.308L774.299 750.192ZM783.245 779.766C746.275 784.512 660.305 793.51 626.544 797.011L626.956 800.989C660.695 797.49 746.725 788.488 783.755 783.734L783.245 779.766ZM626.512 797.014C620.25 797.766 610.734 799.018 602.994 800.016L603.506 803.984C611.266 802.982 620.75 801.734 626.988 800.986L626.512 797.014ZM605.224 801.678L599.224 764.928L595.276 765.572L601.276 802.322L605.224 801.678ZM597.191 767.249C605.757 767.501 616.811 767.249 624.812 766.999L624.688 763.001C616.689 763.251 605.743 763.499 597.309 763.251L597.191 767.249Z" fill="#855E88" mask="url(#path-2-outside-1_2_169)"/>
</g>
<defs>
<filter id="filter0_d_2_169" x="593.25" y="604.5" width="231" height="215.75" filterUnits="userSpaceOnUse" color-interpolation-filters="sRGB">
<feFlood flood-opacity="0" result="BackgroundImageFix"/>
<feColorMatrix in="SourceAlpha" type="matrix" values="0 0 0 0 0 0 0 0 0 0 0 0 0 0 0 0 0 0 127 0" result="hardAlpha"/>
<feOffset dy="4"/>
<feGaussianBlur stdDeviation="2"/>
<feComposite in2="hardAlpha" operator="out"/>
<feColorMatrix type="matrix" values="0 0 0 0 0 0 0 0 0 0 0 0 0 0 0 0 0 0 0.25 0"/>
<feBlend mode="normal" in2="BackgroundImageFix" result="effect1_dropShadow_2_169"/>
<feBlend mode="normal" in="SourceGraphic" in2="effect1_dropShadow_2_169" result="shape"/>
</filter>
<linearGradient id="paint0_linear_2_169" x1="512" y1="100" x2="512" y2="924" gradientUnits="userSpaceOnUse">
<stop stop-color="white"/>
<stop offset="0.0001" stop-color="#FFE9E9"/>
<stop offset="1" stop-color="#DFC6FF"/>
</linearGradient>
</defs>
</svg>
