<svg width="256" height="256" viewBox="0 0 256 256" fill="none" xmlns="http://www.w3.org/2000/svg">
<path d="M184.75 25H71.25C45.7068 25 25 45.7068 25 71.25V184.75C25 210.293 45.7068 231 71.25 231H184.75C210.293 231 231 210.293 231 184.75V71.25C231 45.7068 210.293 25 184.75 25Z" fill="url(#paint0_linear_8_5)"/>
<g filter="url(#filter0_d_8_5)">
<path d="M180.125 153.125C179.312 155 178.438 157.312 177.5 160.125C175.188 167.125 168.688 187.25 166 193.75L156.812 194.062C160.188 186.062 166.688 165.562 168.75 158.312C169.625 155.188 169.938 153.188 170.188 151.125L180.125 153.125ZM191.312 173.312C195.812 180.062 202.188 192.375 205.062 199.312L196.625 203.062C193.812 195.5 188 182.562 183.562 176.562L191.312 173.312ZM156.188 191.25C164.875 190.938 185.312 188.625 194.062 187.438L195.875 195.438C186.625 196.625 165.125 198.875 156.688 199.75C155.125 199.938 152.75 200.25 150.812 200.5L149.312 191.312C151.438 191.375 154.188 191.312 156.188 191.25Z" fill="#1A1A1A"/>
<mask id="mask0_8_5" style="mask-type:luminance" maskUnits="userSpaceOnUse" x="148" y="150" width="58" height="54">
<path d="M205.75 150.5H148.75V203.75H205.75V150.5Z" fill="white"/>
<path d="M180.125 153.125C179.312 155 178.438 157.312 177.5 160.125C175.188 167.125 168.688 187.25 166 193.75L156.812 194.062C160.188 186.062 166.688 165.562 168.75 158.312C169.625 155.188 169.938 153.188 170.188 151.125L180.125 153.125ZM191.312 173.312C195.812 180.062 202.188 192.375 205.062 199.312L196.625 203.062C193.812 195.5 188 182.562 183.562 176.562L191.312 173.312ZM156.188 191.25C164.875 190.938 185.312 188.625 194.062 187.438L195.875 195.438C186.625 196.625 165.125 198.875 156.688 199.75C155.125 199.938 152.75 200.25 150.812 200.5L149.312 191.312C151.438 191.375 154.188 191.312 156.188 191.25Z" fill="black"/>
</mask>
<g mask="url(#mask0_8_5)">
<path d="M180.125 153.125L180.584 153.324C180.644 153.185 180.638 153.027 180.568 152.894C180.498 152.76 180.372 152.665 180.224 152.635L180.125 153.125ZM177.5 160.125L177.026 159.967L177.025 159.968L177.5 160.125ZM166 193.75L166.017 194.25C166.213 194.243 166.387 194.122 166.462 193.941L166 193.75ZM156.813 194.063L156.352 193.868C156.286 194.025 156.304 194.206 156.401 194.346C156.497 194.487 156.659 194.568 156.83 194.562L156.813 194.063ZM168.75 158.313L169.231 158.449L169.232 158.447L168.75 158.313ZM170.188 151.125L170.286 150.635C170.15 150.607 170.008 150.638 169.895 150.72C169.782 150.802 169.708 150.927 169.691 151.065L170.188 151.125ZM191.313 173.313L191.729 173.035C191.596 172.836 191.34 172.759 191.119 172.852L191.313 173.313ZM205.063 199.313L205.266 199.77C205.514 199.659 205.628 199.372 205.525 199.121L205.063 199.313ZM196.625 203.063L196.156 203.237C196.205 203.366 196.304 203.47 196.431 203.523C196.558 203.577 196.702 203.576 196.828 203.52L196.625 203.063ZM183.563 176.563L183.369 176.102C183.228 176.161 183.121 176.282 183.081 176.43C183.04 176.578 183.069 176.737 183.161 176.86L183.563 176.563ZM156.188 191.25L156.203 191.75H156.206L156.188 191.25ZM194.063 187.438L194.55 187.327C194.493 187.074 194.252 186.907 193.995 186.942L194.063 187.438ZM195.875 195.438L195.939 195.934C196.079 195.916 196.204 195.84 196.285 195.724C196.366 195.609 196.394 195.465 196.363 195.327L195.875 195.438ZM156.688 199.75L156.636 199.253C156.633 199.253 156.631 199.253 156.628 199.254L156.688 199.75ZM150.813 200.5L150.319 200.581C150.363 200.847 150.609 201.031 150.877 200.996L150.813 200.5ZM149.313 191.313L149.327 190.813C149.178 190.808 149.035 190.871 148.936 190.983C148.838 191.096 148.795 191.246 148.819 191.393L149.313 191.313ZM179.666 152.926C178.847 154.818 177.967 157.145 177.026 159.967L177.974 160.283C178.909 157.481 179.779 155.182 180.584 153.324L179.666 152.926ZM177.025 159.968C174.707 166.986 168.216 187.081 165.538 193.559L166.462 193.941C169.159 187.419 175.668 167.264 177.975 160.282L177.025 159.968ZM165.983 193.25L156.796 193.563L156.83 194.562L166.017 194.25L165.983 193.25ZM157.273 194.257C160.661 186.227 167.168 165.703 169.231 158.449L168.269 158.176C166.208 165.422 159.714 185.898 156.352 193.868L157.273 194.257ZM169.232 158.447C170.115 155.293 170.432 153.267 170.684 151.185L169.691 151.065C169.444 153.108 169.135 155.082 168.269 158.178L169.232 158.447ZM170.089 151.615L180.026 153.615L180.224 152.635L170.286 150.635L170.089 151.615ZM190.897 173.59C195.376 180.309 201.736 192.592 204.601 199.504L205.525 199.121C202.639 192.158 196.249 179.816 191.729 173.035L190.897 173.59ZM204.86 198.856L196.422 202.606L196.828 203.52L205.266 199.77L204.86 198.856ZM197.094 202.888C194.279 195.319 188.446 182.325 183.965 176.265L183.161 176.86C187.554 182.8 193.347 195.681 196.156 203.237L197.094 202.888ZM183.756 177.024L191.506 173.774L191.119 172.852L183.369 176.102L183.756 177.024ZM156.206 191.75C164.92 191.436 185.379 189.121 194.13 187.933L193.995 186.942C185.247 188.13 164.83 190.439 156.17 190.75L156.206 191.75ZM193.575 187.548L195.387 195.548L196.363 195.327L194.55 187.327L193.575 187.548ZM195.811 194.942C186.569 196.128 165.076 198.378 156.636 199.253L156.739 200.247C165.174 199.373 186.681 197.122 195.939 195.934L195.811 194.942ZM156.628 199.254C155.063 199.442 152.684 199.755 150.749 200.004L150.877 200.996C152.817 200.746 155.188 200.434 156.747 200.247L156.628 199.254ZM151.306 200.42L149.806 191.232L148.819 191.393L150.319 200.581L151.306 200.42ZM149.298 191.812C151.439 191.875 154.203 191.812 156.203 191.75L156.172 190.75C154.172 190.813 151.436 190.875 149.327 190.813L149.298 191.812Z" fill="#855E88"/>
</g>
</g>
<defs>
<filter id="filter0_d_8_5" x="144.812" y="150.625" width="64.7502" height="60.9377" filterUnits="userSpaceOnUse" color-interpolation-filters="sRGB">
<feFlood flood-opacity="0" result="BackgroundImageFix"/>
<feColorMatrix in="SourceAlpha" type="matrix" values="0 0 0 0 0 0 0 0 0 0 0 0 0 0 0 0 0 0 127 0" result="hardAlpha"/>
<feOffset dy="4"/>
<feGaussianBlur stdDeviation="2"/>
<feComposite in2="hardAlpha" operator="out"/>
<feColorMatrix type="matrix" values="0 0 0 0 0 0 0 0 0 0 0 0 0 0 0 0 0 0 0.25 0"/>
<feBlend mode="normal" in2="BackgroundImageFix" result="effect1_dropShadow_8_5"/>
<feBlend mode="normal" in="SourceGraphic" in2="effect1_dropShadow_8_5" result="shape"/>
</filter>
<linearGradient id="paint0_linear_8_5" x1="128" y1="25" x2="128" y2="231" gradientUnits="userSpaceOnUse">
<stop stop-color="white"/>
<stop offset="0.0001" stop-color="#FFE9E9"/>
<stop offset="1" stop-color="#DFC6FF"/>
</linearGradient>
</defs>
</svg>
